<svg width="91" height="91" viewBox="0 0 91 91" fill="none" xmlns="http://www.w3.org/2000/svg">
<path d="M50.3929 12.2524L82.7704 68.3299C83.2641 69.185 83.524 70.155 83.524 71.1424C83.524 72.1298 83.2641 73.0998 82.7704 73.9549C82.2768 74.81 81.5667 75.5201 80.7116 76.0138C79.8565 76.5075 78.8865 76.7674 77.8992 76.7674H13.1441C12.1568 76.7674 11.1868 76.5075 10.3317 76.0138C9.47661 75.5201 8.76654 74.81 8.27286 73.9549C7.77918 73.0998 7.51928 72.1298 7.51929 71.1424C7.51929 70.155 7.7792 69.185 8.27289 68.3299L40.6504 12.2524C42.8141 8.50244 48.2254 8.50244 50.3929 12.2524ZM45.5216 56.6974C44.5271 56.6974 43.5733 57.0925 42.87 57.7958C42.1667 58.4991 41.7716 59.4529 41.7716 60.4474C41.7716 61.442 42.1667 62.3958 42.87 63.0991C43.5733 63.8024 44.5271 64.1974 45.5216 64.1974C46.5162 64.1974 47.47 63.8024 48.1733 63.0991C48.8766 62.3958 49.2716 61.442 49.2716 60.4474C49.2716 59.4529 48.8766 58.4991 48.1733 57.7958C47.47 57.0925 46.5162 56.6974 45.5216 56.6974ZM45.5216 30.4474C44.6031 30.4476 43.7166 30.7848 43.0303 31.3951C42.3439 32.0055 41.9054 32.8465 41.7979 33.7587L41.7716 34.1974V49.1974C41.7727 50.1532 42.1387 51.0726 42.7948 51.7676C43.451 52.4626 44.3477 52.8808 45.3019 52.9368C46.256 52.9929 47.1956 52.6824 47.9285 52.0689C48.6615 51.4555 49.1325 50.5853 49.2454 49.6362L49.2716 49.1974V34.1974C49.2716 33.2029 48.8766 32.2491 48.1733 31.5458C47.47 30.8425 46.5162 30.4474 45.5216 30.4474Z" fill="#F05B4B"/>
</svg>
