<svg width="20" height="12" viewBox="0 0 20 12" fill="none" xmlns="http://www.w3.org/2000/svg">
<path id="Vector" fill-rule="evenodd" clip-rule="evenodd" d="M11.6077 11.3168C11.2352 11.6888 10.7302 11.8978 10.2037 11.8978C9.67724 11.8978 9.17227 11.6888 8.79976 11.3168L1.30574 3.82539C0.933213 3.45268 0.723997 2.94725 0.724121 2.42029C0.724245 1.89332 0.933699 1.38799 1.30641 1.01546C1.67911 0.64293 2.18454 0.433714 2.71151 0.433838C3.23847 0.433962 3.7438 0.643417 4.11633 1.01612L10.2037 7.10352L16.2911 1.01612C16.6657 0.654041 17.1674 0.453548 17.6883 0.457828C18.2093 0.462107 18.7077 0.670816 19.0762 1.039C19.4447 1.40719 19.6539 1.9054 19.6587 2.42631C19.6635 2.94723 19.4634 3.44919 19.1017 3.82406L11.609 11.3181L11.6077 11.3168Z" fill="#3284A6"/>
</svg>
