<svg width="377" height="28" viewBox="0 0 377 28" fill="none" xmlns="http://www.w3.org/2000/svg">
<path d="M3.98473 21.4131H0.723366L8.05149 1.04949H11.6012L18.9293 21.4131H15.668L9.91087 4.74836H9.75178L3.98473 21.4131ZM4.53161 13.4387H15.1112V16.0239H4.53161V13.4387ZM33.4036 6.1404V8.52677H25.0613V6.1404H33.4036ZM27.2985 2.48131H30.2715V16.9288C30.2715 17.5055 30.3577 17.9396 30.53 18.2313C30.7024 18.5164 30.9245 18.7119 31.1962 18.818C31.4746 18.9174 31.7763 18.9671 32.1011 18.9671C32.3397 18.9671 32.5485 18.9505 32.7275 18.9174C32.9065 18.8842 33.0457 18.8577 33.1451 18.8378L33.682 21.2938C33.5097 21.3601 33.2644 21.4264 32.9462 21.4927C32.6281 21.5656 32.2303 21.6054 31.7531 21.612C30.9709 21.6253 30.2417 21.486 29.5656 21.1944C28.8894 20.9027 28.3425 20.452 27.9249 19.8421C27.5073 19.2323 27.2985 18.4666 27.2985 17.5452V2.48131ZM49.4216 6.1404V8.52677H41.0793V6.1404H49.4216ZM43.3165 2.48131H46.2895V16.9288C46.2895 17.5055 46.3757 17.9396 46.548 18.2313C46.7204 18.5164 46.9424 18.7119 47.2142 18.818C47.4926 18.9174 47.7942 18.9671 48.119 18.9671C48.3577 18.9671 48.5665 18.9505 48.7455 18.9174C48.9244 18.8842 49.0636 18.8577 49.1631 18.8378L49.7 21.2938C49.5277 21.3601 49.2824 21.4264 48.9642 21.4927C48.646 21.5656 48.2483 21.6054 47.771 21.612C46.9888 21.6253 46.2597 21.486 45.5835 21.1944C44.9074 20.9027 44.3605 20.452 43.9429 19.8421C43.5253 19.2323 43.3165 18.4666 43.3165 17.5452V2.48131ZM64.7286 21.7214C63.2239 21.7214 61.928 21.3999 60.8408 20.7569C59.7603 20.1073 58.9251 19.1958 58.3352 18.0225C57.7518 16.8426 57.4602 15.4605 57.4602 13.8762C57.4602 12.3118 57.7518 10.933 58.3352 9.73984C58.9251 8.54665 59.7471 7.61531 60.8011 6.9458C61.8617 6.27629 63.1013 5.94154 64.5198 5.94154C65.3816 5.94154 66.2168 6.08406 67.0255 6.3691C67.8342 6.65414 68.5601 7.10158 69.2031 7.71143C69.846 8.32128 70.3532 9.11342 70.7244 10.0878C71.0956 11.0557 71.2812 12.2323 71.2812 13.6177V14.6717H59.1406V12.4444H68.3678C68.3678 11.6622 68.2087 10.9695 67.8906 10.3663C67.5724 9.75641 67.1249 9.27582 66.5482 8.92449C65.9782 8.57317 65.3086 8.39751 64.5397 8.39751C63.7045 8.39751 62.9753 8.603 62.3522 9.01398C61.7357 9.41834 61.2585 9.94864 60.9204 10.6049C60.5889 11.2545 60.4232 11.9605 60.4232 12.7228V14.4628C60.4232 15.4837 60.6022 16.3521 60.9602 17.068C61.3247 17.7839 61.8318 18.3307 62.4815 18.7086C63.1311 19.0798 63.8901 19.2654 64.7585 19.2654C65.3219 19.2654 65.8356 19.1859 66.2996 19.0268C66.7637 18.861 67.1647 18.6158 67.5028 18.291C67.8408 17.9662 68.0994 17.5651 68.2783 17.0878L71.0923 17.5949C70.8669 18.4235 70.4625 19.1494 69.8792 19.7725C69.3025 20.389 68.5766 20.8696 67.7016 21.2143C66.8333 21.5523 65.8423 21.7214 64.7286 21.7214ZM83.1528 12.3449V21.4131H80.1798V6.1404H83.0335V8.6262H83.2224C83.5738 7.81749 84.124 7.16787 84.873 6.67734C85.6287 6.18681 86.5799 5.94154 87.7267 5.94154C88.7674 5.94154 89.6789 6.16029 90.4611 6.59779C91.2433 7.02866 91.8498 7.67165 92.2807 8.52677C92.7116 9.38188 92.927 10.4392 92.927 11.6986V21.4131H89.954V12.0566C89.954 10.9496 89.6656 10.0845 89.0889 9.46143C88.5122 8.83169 87.7201 8.51682 86.7125 8.51682C86.0231 8.51682 85.4099 8.66597 84.873 8.96427C84.3427 9.26256 83.9218 9.70006 83.6102 10.2768C83.3053 10.8468 83.1528 11.5362 83.1528 12.3449ZM108.232 21.7114C106.999 21.7114 105.898 21.3966 104.93 20.7668C103.969 20.1305 103.214 19.2256 102.663 18.0523C102.12 16.8724 101.848 15.4572 101.848 13.8066C101.848 12.156 102.123 10.7441 102.673 9.5708C103.23 8.39751 103.992 7.49931 104.96 6.8762C105.928 6.25309 107.025 5.94154 108.251 5.94154C109.199 5.94154 109.962 6.10063 110.538 6.41881C111.122 6.73037 111.572 7.09495 111.891 7.51256C112.215 7.93018 112.467 8.29807 112.646 8.61626H112.825V1.04949H115.798V21.4131H112.895V19.0367H112.646C112.467 19.3615 112.209 19.7327 111.871 20.1503C111.539 20.568 111.082 20.9325 110.499 21.2441C109.915 21.5557 109.16 21.7114 108.232 21.7114ZM108.888 19.1759C109.743 19.1759 110.465 18.9505 111.055 18.4998C111.652 18.0424 112.103 17.4093 112.408 16.6006C112.719 15.7919 112.875 14.8506 112.875 13.7768C112.875 12.7162 112.723 11.7881 112.418 10.9927C112.113 10.1972 111.665 9.57743 111.075 9.1333C110.485 8.68917 109.756 8.46711 108.888 8.46711C107.993 8.46711 107.247 8.69912 106.651 9.16313C106.054 9.62715 105.603 10.2602 105.298 11.0623C105 11.8644 104.851 12.7692 104.851 13.7768C104.851 14.7976 105.003 15.7157 105.308 16.531C105.613 17.3464 106.064 17.9927 106.661 18.4699C107.264 18.9406 108.006 19.1759 108.888 19.1759ZM130.086 21.7512C129.118 21.7512 128.243 21.5722 127.461 21.2143C126.679 20.8497 126.059 20.3227 125.602 19.6333C125.151 18.9439 124.926 18.0987 124.926 17.0978C124.926 16.236 125.091 15.5268 125.423 14.9699C125.754 14.4131 126.202 13.9723 126.765 13.6475C127.329 13.3227 127.958 13.0774 128.654 12.9117C129.35 12.746 130.06 12.62 130.782 12.5339C131.697 12.4278 132.439 12.3416 133.009 12.2753C133.58 12.2024 133.994 12.0864 134.252 11.9273C134.511 11.7682 134.64 11.5097 134.64 11.1518V11.0822C134.64 10.2138 134.395 9.54097 133.904 9.0637C133.42 8.58643 132.698 8.34779 131.737 8.34779C130.736 8.34779 129.947 8.56985 129.37 9.01398C128.8 9.45148 128.406 9.9387 128.187 10.4756L125.393 9.83927C125.724 8.91124 126.208 8.16218 126.845 7.59211C127.488 7.0154 128.227 6.59779 129.062 6.33927C129.897 6.07412 130.776 5.94154 131.697 5.94154C132.307 5.94154 132.953 6.01446 133.636 6.16029C134.325 6.2995 134.968 6.55802 135.565 6.93586C136.168 7.3137 136.662 7.85395 137.046 8.5566C137.431 9.25262 137.623 10.1574 137.623 11.2711V21.4131H134.72V19.3251H134.6C134.408 19.7095 134.12 20.0874 133.735 20.4586C133.351 20.8298 132.857 21.138 132.254 21.3833C131.651 21.6286 130.928 21.7512 130.086 21.7512ZM130.732 19.3648C131.554 19.3648 132.257 19.2024 132.84 18.8776C133.43 18.5528 133.878 18.1286 134.183 17.6049C134.494 17.0746 134.65 16.5078 134.65 15.9046V13.9359C134.544 14.0419 134.339 14.1414 134.034 14.2342C133.735 14.3203 133.394 14.3966 133.009 14.4628C132.625 14.5225 132.25 14.5789 131.886 14.6319C131.521 14.6783 131.216 14.7181 130.971 14.7512C130.394 14.8241 129.867 14.9467 129.39 15.1191C128.919 15.2914 128.542 15.54 128.257 15.8648C127.978 16.183 127.839 16.6073 127.839 17.1376C127.839 17.8734 128.111 18.4302 128.654 18.808C129.198 19.1792 129.891 19.3648 130.732 19.3648ZM150.156 12.3449V21.4131H147.183V6.1404H150.037V8.6262H150.226C150.577 7.81749 151.127 7.16787 151.876 6.67734C152.632 6.18681 153.583 5.94154 154.73 5.94154C155.771 5.94154 156.682 6.16029 157.464 6.59779C158.246 7.02866 158.853 7.67165 159.284 8.52677C159.715 9.38188 159.93 10.4392 159.93 11.6986V21.4131H156.957V12.0566C156.957 10.9496 156.669 10.0845 156.092 9.46143C155.515 8.83169 154.723 8.51682 153.716 8.51682C153.026 8.51682 152.413 8.66597 151.876 8.96427C151.346 9.26256 150.925 9.70006 150.613 10.2768C150.308 10.8468 150.156 11.5362 150.156 12.3449ZM175.951 21.7214C174.472 21.7214 173.2 21.3866 172.132 20.7171C171.072 20.041 170.256 19.1096 169.686 17.9231C169.116 16.7365 168.831 15.3776 168.831 13.8464C168.831 12.2952 169.123 10.9264 169.706 9.73984C170.29 8.54665 171.112 7.61531 172.172 6.9458C173.233 6.27629 174.482 5.94154 175.921 5.94154C177.081 5.94154 178.115 6.15698 179.023 6.58785C179.931 7.01209 180.664 7.60868 181.22 8.37762C181.784 9.14656 182.119 10.0448 182.225 11.0722H179.331C179.172 10.3563 178.808 9.73984 178.238 9.22279C177.674 8.70575 176.918 8.44722 175.97 8.44722C175.142 8.44722 174.416 8.66597 173.793 9.10347C173.176 9.53434 172.696 10.1508 172.351 10.9529C172.006 11.7484 171.834 12.6896 171.834 13.7768C171.834 14.8904 172.003 15.8516 172.341 16.6603C172.679 17.469 173.157 18.0954 173.773 18.5396C174.396 18.9837 175.129 19.2057 175.97 19.2057C176.534 19.2057 177.044 19.103 177.502 18.8975C177.966 18.6854 178.354 18.3838 178.665 17.9927C178.983 17.6016 179.205 17.1309 179.331 16.5807H182.225C182.119 17.5684 181.797 18.4501 181.26 19.2256C180.723 20.0012 180.004 20.611 179.103 21.0552C178.208 21.4993 177.157 21.7214 175.951 21.7214ZM197.586 21.7214C196.082 21.7214 194.786 21.3999 193.699 20.7569C192.618 20.1073 191.783 19.1958 191.193 18.0225C190.61 16.8426 190.318 15.4605 190.318 13.8762C190.318 12.3118 190.61 10.933 191.193 9.73984C191.783 8.54665 192.605 7.61531 193.659 6.9458C194.719 6.27629 195.959 5.94154 197.378 5.94154C198.239 5.94154 199.075 6.08406 199.883 6.3691C200.692 6.65414 201.418 7.10158 202.061 7.71143C202.704 8.32128 203.211 9.11342 203.582 10.0878C203.953 11.0557 204.139 12.2323 204.139 13.6177V14.6717H191.998V12.4444H201.226C201.226 11.6622 201.067 10.9695 200.748 10.3663C200.43 9.75641 199.983 9.27582 199.406 8.92449C198.836 8.57317 198.166 8.39751 197.398 8.39751C196.562 8.39751 195.833 8.603 195.21 9.01398C194.594 9.41834 194.116 9.94864 193.778 10.6049C193.447 11.2545 193.281 11.9605 193.281 12.7228V14.4628C193.281 15.4837 193.46 16.3521 193.818 17.068C194.183 17.7839 194.69 18.3307 195.339 18.7086C195.989 19.0798 196.748 19.2654 197.616 19.2654C198.18 19.2654 198.693 19.1859 199.157 19.0268C199.621 18.861 200.023 18.6158 200.361 18.291C200.699 17.9662 200.957 17.5651 201.136 17.0878L203.95 17.5949C203.725 18.4235 203.32 19.1494 202.737 19.7725C202.16 20.389 201.434 20.8696 200.559 21.2143C199.691 21.5523 198.7 21.7214 197.586 21.7214ZM225.282 3.69438V1.04949H241.042V3.69438H234.688V21.4131H231.626V3.69438H225.282ZM248.3 21.4131V6.1404H251.174V8.56654H251.333C251.611 7.74457 252.102 7.09826 252.804 6.62762C253.514 6.15035 254.316 5.91171 255.211 5.91171C255.396 5.91171 255.615 5.91834 255.867 5.9316C256.125 5.94485 256.328 5.96143 256.473 5.98131V8.82506C256.354 8.79192 256.142 8.75546 255.837 8.71569C255.532 8.66929 255.227 8.64609 254.922 8.64609C254.22 8.64609 253.593 8.79523 253.043 9.09353C252.499 9.3852 252.069 9.79287 251.75 10.3165C251.432 10.8336 251.273 11.4235 251.273 12.0864V21.4131H248.3ZM268.954 21.7512C267.986 21.7512 267.111 21.5722 266.329 21.2143C265.547 20.8497 264.927 20.3227 264.47 19.6333C264.019 18.9439 263.794 18.0987 263.794 17.0978C263.794 16.236 263.959 15.5268 264.291 14.9699C264.622 14.4131 265.07 13.9723 265.633 13.6475C266.197 13.3227 266.826 13.0774 267.522 12.9117C268.218 12.746 268.928 12.62 269.65 12.5339C270.565 12.4278 271.307 12.3416 271.877 12.2753C272.447 12.2024 272.862 12.0864 273.12 11.9273C273.379 11.7682 273.508 11.5097 273.508 11.1518V11.0822C273.508 10.2138 273.263 9.54097 272.772 9.0637C272.288 8.58643 271.566 8.34779 270.605 8.34779C269.604 8.34779 268.815 8.56985 268.238 9.01398C267.668 9.45148 267.274 9.9387 267.055 10.4756L264.261 9.83927C264.592 8.91124 265.076 8.16218 265.713 7.59211C266.356 7.0154 267.095 6.59779 267.93 6.33927C268.765 6.07412 269.644 5.94154 270.565 5.94154C271.175 5.94154 271.821 6.01446 272.504 6.16029C273.193 6.2995 273.836 6.55802 274.433 6.93586C275.036 7.3137 275.53 7.85395 275.914 8.5566C276.299 9.25262 276.491 10.1574 276.491 11.2711V21.4131H273.588V19.3251H273.468C273.276 19.7095 272.988 20.0874 272.603 20.4586C272.219 20.8298 271.725 21.138 271.122 21.3833C270.519 21.6286 269.796 21.7512 268.954 21.7512ZM269.6 19.3648C270.422 19.3648 271.125 19.2024 271.708 18.8776C272.298 18.5528 272.746 18.1286 273.051 17.6049C273.362 17.0746 273.518 16.5078 273.518 15.9046V13.9359C273.412 14.0419 273.206 14.1414 272.902 14.2342C272.603 14.3203 272.262 14.3966 271.877 14.4628C271.493 14.5225 271.118 14.5789 270.754 14.6319C270.389 14.6783 270.084 14.7181 269.839 14.7512C269.262 14.8241 268.735 14.9467 268.258 15.1191C267.787 15.2914 267.41 15.54 267.125 15.8648C266.846 16.183 266.707 16.6073 266.707 17.1376C266.707 17.8734 266.979 18.4302 267.522 18.808C268.066 19.1792 268.759 19.3648 269.6 19.3648ZM292.484 21.7214C291.006 21.7214 289.733 21.3866 288.666 20.7171C287.605 20.041 286.79 19.1096 286.22 17.9231C285.65 16.7365 285.365 15.3776 285.365 13.8464C285.365 12.2952 285.657 10.9264 286.24 9.73984C286.823 8.54665 287.645 7.61531 288.706 6.9458C289.766 6.27629 291.016 5.94154 292.454 5.94154C293.614 5.94154 294.648 6.15698 295.557 6.58785C296.465 7.01209 297.197 7.60868 297.754 8.37762C298.317 9.14656 298.652 10.0448 298.758 11.0722H295.865C295.706 10.3563 295.341 9.73984 294.771 9.22279C294.208 8.70575 293.452 8.44722 292.504 8.44722C291.675 8.44722 290.95 8.66597 290.326 9.10347C289.71 9.53434 289.229 10.1508 288.885 10.9529C288.54 11.7484 288.368 12.6896 288.368 13.7768C288.368 14.8904 288.537 15.8516 288.875 16.6603C289.213 17.469 289.69 18.0954 290.307 18.5396C290.93 18.9837 291.662 19.2057 292.504 19.2057C293.067 19.2057 293.578 19.103 294.035 18.8975C294.499 18.6854 294.887 18.3838 295.199 17.9927C295.517 17.6016 295.739 17.1309 295.865 16.5807H298.758C298.652 17.5684 298.331 18.4501 297.794 19.2256C297.257 20.0012 296.538 20.611 295.636 21.0552C294.741 21.4993 293.691 21.7214 292.484 21.7214ZM310.272 16.2327L310.252 12.6035H310.769L316.854 6.1404H320.414L313.474 13.4984H313.006L310.272 16.2327ZM307.538 21.4131V1.04949H310.511V21.4131H307.538ZM317.183 21.4131L311.714 14.1546L313.762 12.0765L320.832 21.4131H317.183ZM328.724 21.4131V6.1404H331.697V21.4131H328.724ZM330.225 3.78387C329.708 3.78387 329.264 3.61152 328.893 3.26682C328.528 2.9155 328.346 2.49788 328.346 2.01398C328.346 1.52345 328.528 1.10584 328.893 0.761142C329.264 0.409817 329.708 0.234154 330.225 0.234154C330.742 0.234154 331.183 0.409817 331.547 0.761142C331.919 1.10584 332.104 1.52345 332.104 2.01398C332.104 2.49788 331.919 2.9155 331.547 3.26682C331.183 3.61152 330.742 3.78387 330.225 3.78387ZM344.269 12.3449V21.4131H341.296V6.1404H344.15V8.6262H344.339C344.69 7.81749 345.24 7.16787 345.989 6.67734C346.745 6.18681 347.696 5.94154 348.843 5.94154C349.884 5.94154 350.795 6.16029 351.577 6.59779C352.36 7.02866 352.966 7.67165 353.397 8.52677C353.828 9.38188 354.043 10.4392 354.043 11.6986V21.4131H351.07V12.0566C351.07 10.9496 350.782 10.0845 350.205 9.46143C349.629 8.83169 348.836 8.51682 347.829 8.51682C347.14 8.51682 346.526 8.66597 345.989 8.96427C345.459 9.26256 345.038 9.70006 344.727 10.2768C344.422 10.8468 344.269 11.5362 344.269 12.3449ZM370.034 27.4586C368.821 27.4586 367.777 27.2995 366.902 26.9813C366.034 26.6631 365.324 26.2422 364.774 25.7185C364.224 25.1949 363.813 24.6215 363.541 23.9984L366.097 22.9444C366.275 23.236 366.514 23.5443 366.812 23.8691C367.117 24.2005 367.528 24.4823 368.045 24.7143C368.569 24.9463 369.242 25.0623 370.064 25.0623C371.191 25.0623 372.122 24.7872 372.858 24.237C373.594 23.6934 373.962 22.8251 373.962 21.6319V18.629H373.773C373.594 18.9539 373.335 19.3151 372.997 19.7128C372.666 20.1106 372.208 20.4553 371.625 20.7469C371.042 21.0386 370.283 21.1844 369.348 21.1844C368.141 21.1844 367.054 20.9027 366.087 20.3393C365.125 19.7692 364.363 18.9307 363.8 17.8236C363.243 16.71 362.964 15.3412 362.964 13.7171C362.964 12.0931 363.24 10.701 363.79 9.54097C364.347 8.38093 365.109 7.49268 366.077 6.8762C367.044 6.25309 368.141 5.94154 369.368 5.94154C370.316 5.94154 371.081 6.10063 371.665 6.41881C372.248 6.73037 372.702 7.09495 373.027 7.51256C373.358 7.93018 373.614 8.29807 373.793 8.61626H374.011V6.1404H376.925V21.7512C376.925 23.0637 376.62 24.1409 376.01 24.9827C375.4 25.8246 374.575 26.4477 373.534 26.8521C372.5 27.2564 371.333 27.4586 370.034 27.4586ZM370.004 18.7185C370.859 18.7185 371.582 18.5197 372.172 18.1219C372.768 17.7176 373.219 17.1409 373.524 16.3918C373.836 15.6361 373.991 14.7313 373.991 13.6773C373.991 12.6499 373.839 11.745 373.534 10.9628C373.229 10.1807 372.782 9.5708 372.192 9.1333C371.602 8.68917 370.873 8.46711 370.004 8.46711C369.109 8.46711 368.364 8.69912 367.767 9.16313C367.17 9.62052 366.72 10.2436 366.415 11.0324C366.116 11.8213 365.967 12.7029 365.967 13.6773C365.967 14.6783 366.12 15.5566 366.425 16.3123C366.73 17.068 367.18 17.6579 367.777 18.0822C368.38 18.5064 369.123 18.7185 370.004 18.7185Z" fill="white"/>
</svg>
