<svg width="19" height="19" viewBox="0 0 19 19" fill="none" xmlns="http://www.w3.org/2000/svg">
<g id="material-symbols-light--date-range 1">
<path id="Vector" d="M6.15106 11.048C5.99606 11.048 5.86106 10.9905 5.74606 10.8755C5.63106 10.7605 5.57356 10.6255 5.57356 10.4705C5.57356 10.3155 5.63106 10.1808 5.74606 10.0663C5.86106 9.95178 5.99606 9.89428 6.15106 9.89378C6.30606 9.89328 6.44106 9.95078 6.55606 10.0663C6.67106 10.1818 6.72856 10.3168 6.72856 10.4713C6.72856 10.6258 6.67106 10.7605 6.55606 10.8755C6.44106 10.9905 6.30606 11.048 6.15106 11.048ZM9.15106 11.048C8.99606 11.048 8.86106 10.9905 8.74606 10.8755C8.63106 10.7605 8.57356 10.6255 8.57356 10.4705C8.57356 10.3155 8.63106 10.1808 8.74606 10.0663C8.86106 9.95178 8.99606 9.89428 9.15106 9.89378C9.30606 9.89328 9.44106 9.95078 9.55606 10.0663C9.67106 10.1818 9.72856 10.3168 9.72856 10.4713C9.72856 10.6258 9.67106 10.7605 9.55606 10.8755C9.44106 10.9905 9.30606 11.048 9.15106 11.048ZM12.1511 11.048C11.9961 11.048 11.8611 10.9905 11.7461 10.8755C11.6311 10.7605 11.5736 10.6255 11.5736 10.4705C11.5736 10.3155 11.6311 10.1808 11.7461 10.0663C11.8611 9.95178 11.9961 9.89428 12.1511 9.89378C12.3061 9.89328 12.4411 9.95078 12.5561 10.0663C12.6711 10.1818 12.7286 10.3168 12.7286 10.4713C12.7286 10.6258 12.6711 10.7605 12.5561 10.8755C12.4411 10.9905 12.3061 11.048 12.1511 11.048ZM4.36306 16.3843C4.01756 16.3843 3.72931 16.2688 3.49831 16.0378C3.26731 15.8068 3.15156 15.5185 3.15106 15.173V5.59553C3.15106 5.25053 3.26681 4.96253 3.49831 4.73153C3.72981 4.50053 4.01806 4.38478 4.36306 4.38428H5.68981V2.71178H6.49756V4.38428H11.8631V2.71178H12.6131V4.38428H13.9398C14.2848 4.38428 14.5731 4.50003 14.8046 4.73153C15.0361 4.96303 15.1516 5.25128 15.1511 5.59628V15.173C15.1511 15.518 15.0356 15.8063 14.8046 16.0378C14.5736 16.2693 14.2851 16.3848 13.9391 16.3843H4.36306ZM4.36306 15.6343H13.9398C14.0548 15.6343 14.1606 15.5863 14.2571 15.4903C14.3536 15.3943 14.4016 15.2883 14.4011 15.1723V8.59628H3.90106V15.173C3.90106 15.288 3.94906 15.3938 4.04506 15.4903C4.14106 15.5868 4.24681 15.6348 4.36231 15.6343" fill="white"/>
</g>
</svg>
