<svg width="19" height="16" viewBox="0 0 19 16" fill="none" xmlns="http://www.w3.org/2000/svg">
<path id="Vector" d="M9.52689 5.649L12.0443 8.15844V8.03138C12.0443 7.39953 11.7933 6.79357 11.3465 6.34678C10.8997 5.9 10.2937 5.649 9.66189 5.649H9.52689ZM6.11215 6.2843L7.34304 7.5152C7.30334 7.68197 7.27951 7.84873 7.27951 8.03138C7.27951 8.66323 7.53051 9.26919 7.9773 9.71598C8.42408 10.1628 9.03005 10.4138 9.66189 10.4138C9.8366 10.4138 10.0113 10.3899 10.1781 10.3502L11.409 11.5811C10.8769 11.8432 10.2893 12.002 9.66189 12.002C8.60882 12.002 7.59887 11.5837 6.85423 10.839C6.10959 10.0944 5.69126 9.08446 5.69126 8.03138C5.69126 7.40402 5.85009 6.81637 6.11215 6.2843ZM1.72063 1.89279L3.53124 3.70339L3.8886 4.06075C2.57829 5.09311 1.54592 6.44313 0.926506 8.03138C2.30034 11.5176 5.69126 13.9873 9.66189 13.9873C10.8928 13.9873 12.0681 13.7491 13.1402 13.3203L13.4816 13.6538L15.8005 15.9726L16.809 14.9641L2.72917 0.884247M9.66189 4.06075C10.715 4.06075 11.7249 4.47908 12.4696 5.22372C13.2142 5.96836 13.6325 6.9783 13.6325 8.03138C13.6325 8.53962 13.5293 9.03198 13.3466 9.47669L15.6734 11.8035C16.8646 10.8108 17.8176 9.50846 18.3973 8.03138C17.0234 4.54517 13.6325 2.07544 9.66189 2.07544C8.55012 2.07544 7.48599 2.27397 6.48539 2.63132L8.20864 4.33869C8.66129 4.16399 9.14571 4.06075 9.66189 4.06075Z" fill="#C6CDDA"/>
</svg>
