<svg width="21" height="13" viewBox="0 0 21 13" fill="none" xmlns="http://www.w3.org/2000/svg">
<path id="Vector" d="M0.827087 6.21016C1.75292 4.39407 3.16284 2.86932 4.90104 1.80441C6.63923 0.739501 8.63801 0.175903 10.6765 0.175903C12.7149 0.175903 14.7137 0.739501 16.4519 1.80441C18.1901 2.86932 19.6 4.39407 20.5259 6.21016C19.6 8.02625 18.1901 9.551 16.4519 10.6159C14.7137 11.6808 12.7149 12.2444 10.6765 12.2444C8.63801 12.2444 6.63923 11.6808 4.90104 10.6159C3.16284 9.551 1.75292 8.02625 0.827087 6.21016ZM10.6765 10.2303C11.7427 10.2303 12.7652 9.80677 13.5192 9.05284C14.2731 8.29892 14.6966 7.27637 14.6966 6.21016C14.6966 5.14395 14.2731 4.12141 13.5192 3.36748C12.7652 2.61355 11.7427 2.19 10.6765 2.19C9.61026 2.19 8.58772 2.61355 7.83379 3.36748C7.07987 4.12141 6.65632 5.14395 6.65632 6.21016C6.65632 7.27637 7.07987 8.29892 7.83379 9.05284C8.58772 9.80677 9.61026 10.2303 10.6765 10.2303ZM10.6765 8.22024C10.1434 8.22024 9.6321 8.00846 9.25513 7.6315C8.87817 7.25454 8.66639 6.74327 8.66639 6.21016C8.66639 5.67705 8.87817 5.16578 9.25513 4.78882C9.6321 4.41186 10.1434 4.20008 10.6765 4.20008C11.2096 4.20008 11.7208 4.41186 12.0978 4.78882C12.4748 5.16578 12.6866 5.67705 12.6866 6.21016C12.6866 6.74327 12.4748 7.25454 12.0978 7.6315C11.7208 8.00846 11.2096 8.22024 10.6765 8.22024Z" fill="#C6CDDA"/>
</svg>
