<svg width="75" height="127" viewBox="0 0 75 127" fill="none" xmlns="http://www.w3.org/2000/svg">
<g id="Logo Total" clip-path="url(#clip0_3647_2395)">
<path id="Vector" d="M13.3455 100.768V103.576H8.58028V118.223H5.49843V103.576H0.730347V100.768H13.3455Z" fill="#00548F"/>
<path id="Vector_2" d="M14.9598 109.52C14.9598 103.604 17.7414 100.647 23.3047 100.647C28.7873 100.647 31.5277 103.604 31.5258 109.52C31.5258 115.403 28.7854 118.345 23.3047 118.347C17.987 118.347 15.2053 115.404 14.9598 109.52ZM23.3047 115.539C26.658 115.539 28.3327 113.508 28.3289 109.448C28.3289 105.453 26.6541 103.455 23.3047 103.455C19.8727 103.455 18.1567 105.453 18.1567 109.448C18.1567 113.508 19.8727 115.539 23.3047 115.539Z" fill="#00548F"/>
<path id="Vector_3" d="M45.761 100.768V103.576H40.9929V118.223H37.9139V103.576H33.1458V100.768H45.761Z" fill="#00548F"/>
<path id="Vector_4" d="M47.922 118.223H44.7596L51.8182 100.768H55.1303L62.3385 118.223H59.0265L57.1302 113.463H51.6082L52.6671 110.655H56.0137L53.398 104.099L47.922 118.223Z" fill="#00548F"/>
<path id="Vector_5" d="M67.9094 100.768V115.418H74.5134V118.223H64.8276V100.768H67.9094Z" fill="#00548F"/>
<path id="Vector_6" d="M1.79504 126.927H0.730347L3.10432 121.054H4.2208L6.64369 126.927H5.53009L4.89127 125.323H3.03526L3.38919 124.38H4.51719L3.63666 122.175L1.79504 126.927Z" fill="#00548F"/>
<path id="Vector_7" d="M11.8607 121.054L9.40901 126.927H8.29252L5.94733 121.054H7.17891L8.91119 125.55L10.6406 121.054H11.8607Z" fill="#00548F"/>
<path id="Vector_8" d="M13.2736 121.054H12.2376V126.927H13.2736V121.054Z" fill="#00548F"/>
<path id="Vector_9" d="M14.8159 126.927H13.7512L16.1252 121.054H17.2417L19.6646 126.927H18.551L17.915 125.323H16.0561L16.4101 124.38H17.5381L16.6575 122.175L14.8159 126.927Z" fill="#00548F"/>
<path id="Vector_10" d="M23.2097 121.054V121.997H21.6069V126.927H20.571V121.997H18.9682V121.054H23.2097Z" fill="#00548F"/>
<path id="Vector_11" d="M24.6255 121.054H23.5895V126.927H24.6255V121.054Z" fill="#00548F"/>
<path id="Vector_12" d="M25.3938 123.986C25.3938 121.997 26.3299 121.002 28.2022 121C30.0746 120.998 30.9963 121.993 30.9676 123.986C30.9676 125.966 30.0458 126.955 28.2022 126.955C26.4162 126.955 25.4801 125.966 25.3938 123.986ZM28.2022 125.998C29.3302 125.998 29.8933 125.315 29.8913 123.949C29.8894 122.583 29.3264 121.912 28.2022 121.937C27.0512 121.937 26.4757 122.607 26.4757 123.949C26.4757 125.29 27.0512 125.973 28.2022 125.998Z" fill="#00548F"/>
<path id="Vector_13" d="M31.7359 126.927V121.054H32.7746L35.727 125.331V121.054H36.7226V126.927H35.6867L32.7344 122.558V126.927H31.7359Z" fill="#00548F"/>
<path id="Vector_14" d="M42.895 121.054V121.997H41.2951V126.927H40.2563V121.997H38.6535V121.054H42.895Z" fill="#00548F"/>
<path id="Vector_15" d="M43.2748 126.918V121.054H45.8157C46.9667 121.054 47.5422 121.578 47.5422 122.627C47.5422 123.334 47.0962 123.923 46.207 124.389L47.9796 126.927H46.6732L44.9725 124.368V123.871C45.9624 123.693 46.4574 123.289 46.4574 122.658C46.4574 122.227 46.2272 122.009 45.7639 122.009H44.3424V126.918H43.2748Z" fill="#00548F"/>
<path id="Vector_16" d="M48.8227 126.927H47.7609L50.1349 121.054H51.2485L53.6742 126.927H52.5578L51.9218 125.323H50.0629L50.4197 124.38H51.5449L50.6672 122.175L48.8227 126.927Z" fill="#00548F"/>
<path id="Vector_17" d="M55.1849 121.054H54.149V126.927H55.1849V121.054Z" fill="#00548F"/>
<path id="Vector_18" d="M56.1489 126.927V121.054H57.1877L60.1401 125.331V121.054H61.1357V126.927H60.0998L57.1474 122.558V126.927H56.1489Z" fill="#00548F"/>
<path id="Vector_19" d="M63.1385 121.054H62.1026V126.927H63.1385V121.054Z" fill="#00548F"/>
<path id="Vector_20" d="M64.1053 126.927V121.054H65.1412L68.0936 125.331V121.054H69.0921V126.927H68.0533L65.1009 122.558V126.927H64.1053Z" fill="#00548F"/>
<path id="Vector_21" d="M74.5134 126.654C73.9777 126.879 73.3995 126.986 72.8185 126.967C70.8445 126.967 69.8585 125.947 69.8604 123.909C69.8604 121.977 70.8637 121.011 72.8703 121.011C73.4312 121.003 73.9887 121.101 74.5134 121.299V122.285C74.0213 122.064 73.4873 121.952 72.948 121.957C71.6051 121.957 70.9337 122.607 70.9337 123.909C70.9337 125.317 71.5677 126.021 72.8358 126.021C73.0531 126.017 73.2689 125.984 73.4775 125.923V124.216H74.5134V126.654Z" fill="#00548F"/>
<g id="Clip path group">
<mask id="mask0_3647_2395" style="mask-type:luminance" maskUnits="userSpaceOnUse" x="0" y="82" width="27" height="11">
<g id="clip-path">
<path id="Vector_22" d="M0.730347 82.2196L6.7329 92.5901H26.4383L20.4386 82.2196H0.730347Z" fill="white"/>
</g>
</mask>
<g mask="url(#mask0_3647_2395)">
<g id="Group">
<path id="Vector_23" d="M26.4383 82.2196H0.730347V92.593H26.4383V82.2196Z" fill="url(#paint0_linear_3647_2395)"/>
</g>
</g>
</g>
<g id="Clip path group_2">
<mask id="mask1_3647_2395" style="mask-type:luminance" maskUnits="userSpaceOnUse" x="0" y="27" width="42" height="66">
<g id="clip-path-2">
<path id="Vector_24" d="M0.730347 82.2196L6.7329 92.5901L41.4217 32.5428L32.4293 27.3547L0.730347 82.2196Z" fill="white"/>
</g>
</mask>
<g mask="url(#mask1_3647_2395)">
<g id="Group_2">
<path id="Vector_25" d="M9.46662 10.6633L-26.0819 78.585L32.6925 109.277L68.241 41.3553L9.46662 10.6633Z" fill="url(#paint1_linear_3647_2395)"/>
</g>
</g>
</g>
<g id="Clip path group_3">
<mask id="mask2_3647_2395" style="mask-type:luminance" maskUnits="userSpaceOnUse" x="32" y="27" width="43" height="66">
<g id="clip-path-3">
<path id="Vector_26" d="M32.4294 27.3547L68.5224 92.5901L74.5134 82.2196L42.8173 27.3547H32.4294Z" fill="white"/>
</g>
</mask>
<g mask="url(#mask2_3647_2395)">
<g id="Group_3">
<path id="Vector_27" d="M64.0743 9.20607L4.22243 43.5421L42.8649 110.749L102.717 76.4133L64.0743 9.20607Z" fill="url(#paint2_linear_3647_2395)"/>
</g>
</g>
</g>
<g id="Clip path group_4">
<mask id="mask3_3647_2395" style="mask-type:luminance" maskUnits="userSpaceOnUse" x="24" y="82" width="51" height="11">
<g id="clip-path-4">
<path id="Vector_28" d="M24.5535 82.2196L30.5561 92.5901H68.5223L74.5134 82.2196H24.5535Z" fill="white"/>
</g>
</mask>
<g mask="url(#mask3_3647_2395)">
<g id="Group_4">
<path id="Vector_29" d="M74.5134 82.2196H24.5535V92.593H74.5134V82.2196Z" fill="url(#paint3_linear_3647_2395)"/>
</g>
</g>
</g>
<g id="Clip path group_5">
<mask id="mask4_3647_2395" style="mask-type:luminance" maskUnits="userSpaceOnUse" x="24" y="52" width="27" height="41">
<g id="clip-path-5">
<path id="Vector_30" d="M24.5535 82.2196L30.5561 92.5901C41.3037 81.4234 47.3465 70.2912 50.6154 60.2282L46.5063 52.7952C38.57 70.616 24.5535 82.2196 24.5535 82.2196Z" fill="white"/>
</g>
</mask>
<g mask="url(#mask4_3647_2395)">
<g id="Group_5">
<path id="Vector_31" d="M31.6899 41.1824L6.78943 81.6913L43.4816 104.195L68.3821 63.6862L31.6899 41.1824Z" fill="url(#paint4_linear_3647_2395)"/>
</g>
</g>
</g>
<g id="Clip path group_6">
<mask id="mask5_3647_2395" style="mask-type:luminance" maskUnits="userSpaceOnUse" x="50" y="20" width="4" height="27">
<g id="clip-path-6">
<path id="Vector_32" d="M50.532 40.7087L53.6311 46.0751C55.231 30.7694 51.0413 20.3327 51.0413 20.3327C52.2116 27.0929 52.0336 34.0174 50.5176 40.7087" fill="white"/>
</g>
</mask>
<g mask="url(#mask5_3647_2395)">
<g id="Group_6">
<path id="Vector_33" d="M50.7377 19.3619L45.2264 44.9322L55.0216 47.0387L60.5329 21.4683L50.7377 19.3619Z" fill="url(#paint5_linear_3647_2395)"/>
</g>
</g>
</g>
<path id="Vector_34" fill-rule="evenodd" clip-rule="evenodd" d="M54.7648 18.4645C54.6066 17.7459 53.7232 17.8637 52.998 17.9327C52.1923 18.0103 51.1765 18.2201 50.624 17.8379C50.1234 17.4929 50.1953 16.4007 49.8845 15.685C49.4414 14.6704 48.8745 13.7075 48.3623 12.7245C48.1753 12.368 47.9911 12.0087 47.7148 11.4741C48.7249 11.066 49.6572 10.5515 50.6557 10.3072C53.0757 9.73229 55.5274 9.25803 57.9733 8.7464C57.8726 8.17154 57.4783 7.97034 56.7992 7.93297C53.2253 7.71452 49.6543 7.43284 46.0804 7.20865C45.8434 7.21361 45.6105 7.1468 45.4122 7.017C45.214 6.8872 45.0597 6.70049 44.9697 6.48145C44.3136 5.20525 43.6777 3.91181 42.9151 2.69885C42.3912 1.94769 41.7925 1.25143 41.1282 0.620723C40.9785 0.456887 40.6476 0.462635 40.403 0.390778C40.3282 0.63222 40.1412 0.905279 40.1901 1.12085C40.3516 2.02198 40.6022 2.90489 40.9382 3.7566C41.5137 5.06153 42.2562 6.30611 42.9525 7.55931C43.0869 7.75472 43.1588 7.98622 43.1588 8.22328C43.1588 8.46034 43.0869 8.69184 42.9525 8.88724C41.1569 11.9858 39.416 15.113 37.6204 18.2115C37.278 18.7864 37.2348 19.2405 37.6492 19.6343C39.4304 17.8838 41.1713 16.0989 43.0014 14.4088C43.7554 13.7161 44.7021 13.2246 45.5912 12.6124C45.879 13.1355 46.0804 13.489 46.2732 13.8426C46.8084 14.8112 47.3005 15.8143 47.9019 16.7456C48.3191 17.3981 49.2774 17.9471 49.2889 18.5507C49.2889 19.2233 48.5608 19.9533 48.0515 20.5627C47.5969 21.1376 47.007 21.7987 47.5163 22.3304L54.7648 18.4645Z" fill="#00548F"/>
</g>
<defs>
<linearGradient id="paint0_linear_3647_2395" x1="43.156" y1="86.9663" x2="9.48492" y2="86.9663" gradientUnits="userSpaceOnUse">
<stop stop-color="#212970"/>
<stop offset="0.51" stop-color="#007FB4"/>
<stop offset="1" stop-color="#212970"/>
</linearGradient>
<linearGradient id="paint1_linear_3647_2395" x1="37.7996" y1="33.5334" x2="-8.49724" y2="122.191" gradientUnits="userSpaceOnUse">
<stop stop-color="#212970"/>
<stop offset="0.51" stop-color="#007FB4"/>
<stop offset="1" stop-color="#212970"/>
</linearGradient>
<linearGradient id="paint2_linear_3647_2395" x1="22.606" y1="1.304" x2="73.1774" y2="89.4559" gradientUnits="userSpaceOnUse">
<stop stop-color="#212970"/>
<stop offset="0.51" stop-color="#007FB4"/>
<stop offset="1" stop-color="#212970"/>
</linearGradient>
<linearGradient id="paint3_linear_3647_2395" x1="98.6097" y1="88.0523" x2="29.5167" y2="88.0523" gradientUnits="userSpaceOnUse">
<stop stop-color="#212970"/>
<stop offset="0.51" stop-color="#007FB4"/>
<stop offset="1" stop-color="#212970"/>
</linearGradient>
<linearGradient id="paint4_linear_3647_2395" x1="53.2764" y1="45.9008" x2="0.751747" y2="131.542" gradientUnits="userSpaceOnUse">
<stop stop-color="#212970"/>
<stop offset="0.51" stop-color="#007FB4"/>
<stop offset="1" stop-color="#212970"/>
</linearGradient>
<linearGradient id="paint5_linear_3647_2395" x1="57.9508" y1="7.78629" x2="49.9339" y2="45.0651" gradientUnits="userSpaceOnUse">
<stop stop-color="#212970"/>
<stop offset="0.51" stop-color="#007FB4"/>
<stop offset="1" stop-color="#212970"/>
</linearGradient>
<clipPath id="clip0_3647_2395">
<rect width="73.783" height="126.576" fill="white" transform="translate(0.730347 0.390778)"/>
</clipPath>
</defs>
</svg>
