<svg width="181" height="29" viewBox="0 0 181 29" fill="none" xmlns="http://www.w3.org/2000/svg">
<path d="M30.4389 23.8379H29.1283L32.0732 15.6544H33.4998L36.4447 23.8379H35.1341L32.8205 17.1409H32.7565L30.4389 23.8379ZM30.6587 20.6333H34.9103V21.6722H30.6587V20.6333Z" fill="white"/>
<path d="M42.2615 17.7003V18.6593H38.9089V17.7003H42.2615ZM39.808 16.2298H41.0028V22.0358C41.0028 22.2676 41.0374 22.442 41.1067 22.5593C41.1759 22.6738 41.2652 22.7524 41.3744 22.795C41.4863 22.835 41.6075 22.855 41.738 22.855C41.8339 22.855 41.9178 22.8483 41.9897 22.835C42.0617 22.8217 42.1176 22.811 42.1576 22.803L42.3733 23.79C42.3041 23.8166 42.2055 23.8433 42.0777 23.8699C41.9498 23.8992 41.7899 23.9152 41.5981 23.9178C41.2838 23.9232 40.9908 23.8672 40.7191 23.75C40.4473 23.6328 40.2276 23.4517 40.0597 23.2066C39.8919 22.9615 39.808 22.6538 39.808 22.2835V16.2298Z" fill="white"/>
<path d="M48.6986 17.7003V18.6593H45.3461V17.7003H48.6986ZM46.2451 16.2298H47.4399V22.0358C47.4399 22.2676 47.4745 22.442 47.5438 22.5593C47.613 22.6738 47.7023 22.7524 47.8115 22.795C47.9234 22.835 48.0446 22.855 48.1751 22.855C48.271 22.855 48.3549 22.8483 48.4269 22.835C48.4988 22.8217 48.5547 22.811 48.5947 22.803L48.8105 23.79C48.7412 23.8166 48.6426 23.8433 48.5148 23.8699C48.3869 23.8992 48.2271 23.9152 48.0353 23.9178C47.7209 23.9232 47.4279 23.8672 47.1562 23.75C46.8845 23.6328 46.6647 23.4517 46.4969 23.2066C46.329 22.9615 46.2451 22.6538 46.2451 22.2835V16.2298Z" fill="white"/>
<path d="M54.85 23.9618C54.2453 23.9618 53.7245 23.8326 53.2876 23.5742C52.8534 23.3131 52.5177 22.9469 52.2807 22.4753C52.0462 22.0012 51.929 21.4457 51.929 20.8091C51.929 20.1804 52.0462 19.6263 52.2807 19.1468C52.5177 18.6673 52.8481 18.293 53.2716 18.024C53.6979 17.7549 54.196 17.6204 54.7661 17.6204C55.1124 17.6204 55.448 17.6777 55.773 17.7922C56.098 17.9068 56.3897 18.0866 56.6481 18.3316C56.9065 18.5767 57.1103 18.8951 57.2595 19.2867C57.4087 19.6756 57.4833 20.1484 57.4833 20.7052V21.1287H52.6043V20.2337H56.3125C56.3125 19.9193 56.2485 19.641 56.1207 19.3985C55.9928 19.1535 55.813 18.9603 55.5812 18.8191C55.3521 18.678 55.0831 18.6074 54.7741 18.6074C54.4384 18.6074 54.1454 18.6899 53.895 18.8551C53.6472 19.0176 53.4554 19.2307 53.3196 19.4944C53.1864 19.7555 53.1198 20.0392 53.1198 20.3456V21.0448C53.1198 21.4551 53.1917 21.804 53.3356 22.0917C53.4821 22.3794 53.6859 22.5992 53.9469 22.7511C54.208 22.9002 54.513 22.9748 54.862 22.9748C55.0884 22.9748 55.2949 22.9429 55.4813 22.8789C55.6678 22.8123 55.829 22.7138 55.9648 22.5832C56.1007 22.4527 56.2046 22.2915 56.2765 22.0997L57.4073 22.3035C57.3168 22.6365 57.1543 22.9282 56.9198 23.1786C56.6881 23.4264 56.3964 23.6195 56.0448 23.758C55.6958 23.8939 55.2975 23.9618 54.85 23.9618Z" fill="white"/>
<path d="M62.2541 20.1937V23.8379H61.0593V17.7003H62.2062V18.6993H62.2821C62.4233 18.3743 62.6444 18.1132 62.9454 17.9161C63.2491 17.7189 63.6313 17.6204 64.0922 17.6204C64.5104 17.6204 64.8767 17.7083 65.1911 17.8841C65.5054 18.0573 65.7491 18.3157 65.9223 18.6593C66.0955 19.0029 66.182 19.4278 66.182 19.934V23.8379H64.9873V20.0778C64.9873 19.633 64.8714 19.2853 64.6396 19.0349C64.4079 18.7818 64.0895 18.6553 63.6846 18.6553C63.4076 18.6553 63.1612 18.7152 62.9454 18.8351C62.7323 18.955 62.5631 19.1308 62.4379 19.3626C62.3154 19.5917 62.2541 19.8687 62.2541 20.1937Z" fill="white"/>
<path d="M72.3324 23.9578C71.837 23.9578 71.3947 23.8313 71.0058 23.5782C70.6196 23.3225 70.3159 22.9588 70.0948 22.4873C69.8763 22.0132 69.7671 21.4444 69.7671 20.7811C69.7671 20.1178 69.8777 19.5504 70.0988 19.0789C70.3225 18.6074 70.6289 18.2464 71.0178 17.996C71.4067 17.7456 71.8476 17.6204 72.3404 17.6204C72.7214 17.6204 73.0277 17.6843 73.2595 17.8122C73.4939 17.9374 73.675 18.0839 73.8029 18.2517C73.9334 18.4196 74.0347 18.5674 74.1066 18.6953H74.1785V15.6544H75.3733V23.8379H74.2065V22.8829H74.1066C74.0347 23.0135 73.9308 23.1626 73.7949 23.3305C73.6617 23.4983 73.4779 23.6448 73.2435 23.77C73.0091 23.8952 72.7054 23.9578 72.3324 23.9578ZM72.5962 22.9389C72.9398 22.9389 73.2302 22.8483 73.4673 22.6671C73.707 22.4833 73.8882 22.2289 74.0107 21.9039C74.1359 21.5789 74.1985 21.2007 74.1985 20.7691C74.1985 20.3429 74.1372 19.9699 74.0147 19.6503C73.8922 19.3306 73.7123 19.0815 73.4753 18.9031C73.2382 18.7246 72.9451 18.6353 72.5962 18.6353C72.2365 18.6353 71.9369 18.7286 71.6971 18.915C71.4574 19.1015 71.2762 19.3559 71.1537 19.6782C71.0338 20.0006 70.9738 20.3642 70.9738 20.7691C70.9738 21.1794 71.0351 21.5483 71.1577 21.876C71.2802 22.2036 71.4613 22.4634 71.7011 22.6552C71.9435 22.8443 72.2419 22.9389 72.5962 22.9389Z" fill="white"/>
<path d="M81.1151 23.9738C80.7262 23.9738 80.3746 23.9019 80.0602 23.758C79.7459 23.6115 79.4968 23.3997 79.313 23.1227C79.1318 22.8456 79.0413 22.506 79.0413 22.1037C79.0413 21.7574 79.1079 21.4724 79.2411 21.2486C79.3743 21.0249 79.5541 20.8477 79.7805 20.7172C80.0069 20.5866 80.26 20.4881 80.5397 20.4215C80.8194 20.3549 81.1045 20.3043 81.3948 20.2696C81.7624 20.227 82.0608 20.1924 82.2899 20.1657C82.519 20.1364 82.6855 20.0898 82.7894 20.0259C82.8933 19.962 82.9452 19.8581 82.9452 19.7142V19.6862C82.9452 19.3373 82.8467 19.0669 82.6495 18.8751C82.4551 18.6833 82.1647 18.5874 81.7784 18.5874C81.3762 18.5874 81.0592 18.6766 80.8274 18.8551C80.5983 19.0309 80.4398 19.2267 80.3519 19.4425L79.2291 19.1868C79.3623 18.8138 79.5567 18.5128 79.8125 18.2837C80.0709 18.0519 80.3679 17.8841 80.7035 17.7802C81.0392 17.6737 81.3922 17.6204 81.7624 17.6204C82.0075 17.6204 82.2673 17.6497 82.5416 17.7083C82.8187 17.7642 83.0771 17.8681 83.3168 18.02C83.5592 18.1718 83.7577 18.3889 83.9122 18.6713C84.0667 18.951 84.144 19.3146 84.144 19.7622V23.8379H82.9772V22.9988H82.9292C82.852 23.1533 82.7361 23.3051 82.5816 23.4543C82.4271 23.6035 82.2286 23.7274 81.9862 23.8259C81.7438 23.9245 81.4534 23.9738 81.1151 23.9738ZM81.3749 23.0148C81.7052 23.0148 81.9875 22.9495 82.222 22.819C82.4591 22.6885 82.6389 22.518 82.7614 22.3075C82.8866 22.0944 82.9492 21.8666 82.9492 21.6242V20.833C82.9066 20.8757 82.824 20.9156 82.7015 20.9529C82.5816 20.9876 82.4444 21.0182 82.2899 21.0448C82.1354 21.0688 81.9849 21.0914 81.8384 21.1128C81.6919 21.1314 81.5693 21.1474 81.4708 21.1607C81.239 21.19 81.0272 21.2393 80.8354 21.3086C80.6463 21.3778 80.4944 21.4777 80.3799 21.6082C80.268 21.7361 80.2121 21.9066 80.2121 22.1197C80.2121 22.4154 80.3213 22.6392 80.5397 22.791C80.7582 22.9402 81.0365 23.0148 81.3749 23.0148Z" fill="white"/>
<path d="M89.1805 20.1937V23.8379H87.9858V17.7003H89.1326V18.6993H89.2085C89.3497 18.3743 89.5708 18.1132 89.8718 17.9161C90.1755 17.7189 90.5578 17.6204 91.0186 17.6204C91.4369 17.6204 91.8032 17.7083 92.1175 17.8841C92.4318 18.0573 92.6756 18.3157 92.8487 18.6593C93.0219 19.0029 93.1085 19.4278 93.1085 19.934V23.8379H91.9137V20.0778C91.9137 19.633 91.7978 19.2853 91.5661 19.0349C91.3343 18.7818 91.016 18.6553 90.6111 18.6553C90.334 18.6553 90.0876 18.7152 89.8718 18.8351C89.6587 18.955 89.4896 19.1308 89.3644 19.3626C89.2418 19.5917 89.1805 19.8687 89.1805 20.1937Z" fill="white"/>
<path d="M99.5466 23.9618C98.9525 23.9618 98.4411 23.8273 98.0122 23.5582C97.586 23.2865 97.2583 22.9122 97.0292 22.4354C96.8001 21.9585 96.6856 21.4124 96.6856 20.7971C96.6856 20.1737 96.8028 19.6236 97.0372 19.1468C97.2716 18.6673 97.6019 18.293 98.0282 18.024C98.4544 17.7549 98.9565 17.6204 99.5346 17.6204C100.001 17.6204 100.416 17.707 100.781 17.8801C101.146 18.0506 101.441 18.2904 101.664 18.5994C101.891 18.9084 102.025 19.2693 102.068 19.6822H100.905C100.841 19.3945 100.695 19.1468 100.466 18.939C100.239 18.7312 99.9355 18.6273 99.5546 18.6273C99.2216 18.6273 98.9299 18.7152 98.6795 18.8911C98.4317 19.0642 98.2386 19.312 98.1001 19.6343C97.9616 19.954 97.8923 20.3322 97.8923 20.7691C97.8923 21.2167 97.9602 21.6029 98.0961 21.9279C98.232 22.2529 98.4238 22.5046 98.6715 22.6831C98.9219 22.8616 99.2163 22.9509 99.5546 22.9509C99.781 22.9509 99.9861 22.9096 100.17 22.827C100.356 22.7417 100.512 22.6205 100.637 22.4634C100.765 22.3062 100.855 22.1171 100.905 21.8959H102.068C102.025 22.2929 101.896 22.6472 101.68 22.9588C101.465 23.2705 101.176 23.5156 100.813 23.6941C100.454 23.8726 100.031 23.9618 99.5466 23.9618Z" fill="white"/>
<path d="M108.241 23.9618C107.637 23.9618 107.116 23.8326 106.679 23.5742C106.245 23.3131 105.909 22.9469 105.672 22.4753C105.438 22.0012 105.32 21.4457 105.32 20.8091C105.32 20.1804 105.438 19.6263 105.672 19.1468C105.909 18.6673 106.239 18.293 106.663 18.024C107.089 17.7549 107.587 17.6204 108.157 17.6204C108.504 17.6204 108.839 17.6777 109.164 17.7922C109.489 17.9068 109.781 18.0866 110.039 18.3316C110.298 18.5767 110.502 18.8951 110.651 19.2867C110.8 19.6756 110.875 20.1484 110.875 20.7052V21.1287H105.996V20.2337H109.704C109.704 19.9193 109.64 19.641 109.512 19.3985C109.384 19.1535 109.204 18.9603 108.973 18.8191C108.744 18.678 108.474 18.6074 108.165 18.6074C107.83 18.6074 107.537 18.6899 107.286 18.8551C107.039 19.0176 106.847 19.2307 106.711 19.4944C106.578 19.7555 106.511 20.0392 106.511 20.3456V21.0448C106.511 21.4551 106.583 21.804 106.727 22.0917C106.873 22.3794 107.077 22.5992 107.338 22.7511C107.599 22.9002 107.904 22.9748 108.253 22.9748C108.48 22.9748 108.686 22.9429 108.873 22.8789C109.059 22.8123 109.22 22.7138 109.356 22.5832C109.492 22.4527 109.596 22.2915 109.668 22.0997L110.799 22.3035C110.708 22.6365 110.546 22.9282 110.311 23.1786C110.079 23.4264 109.788 23.6195 109.436 23.758C109.087 23.8939 108.689 23.9618 108.241 23.9618Z" fill="white"/>
<path d="M119.371 16.7173V15.6544H125.705V16.7173H123.151V23.8379H121.921V16.7173H119.371Z" fill="white"/>
<path d="M128.622 23.8379V17.7003H129.776V18.6753H129.84C129.952 18.345 130.149 18.0852 130.432 17.8961C130.717 17.7043 131.039 17.6084 131.399 17.6084C131.473 17.6084 131.561 17.6111 131.662 17.6164C131.766 17.6217 131.848 17.6284 131.906 17.6364V18.7792C131.858 18.7659 131.773 18.7512 131.65 18.7352C131.528 18.7166 131.405 18.7073 131.283 18.7073C131 18.7073 130.749 18.7672 130.528 18.8871C130.309 19.0043 130.136 19.1681 130.008 19.3786C129.88 19.5863 129.816 19.8234 129.816 20.0898V23.8379H128.622Z" fill="white"/>
<path d="M136.922 23.9738C136.533 23.9738 136.181 23.9019 135.867 23.758C135.553 23.6115 135.303 23.3997 135.12 23.1227C134.939 22.8456 134.848 22.506 134.848 22.1037C134.848 21.7574 134.915 21.4724 135.048 21.2486C135.181 21.0249 135.361 20.8477 135.587 20.7172C135.814 20.5866 136.067 20.4881 136.346 20.4215C136.626 20.3549 136.911 20.3043 137.201 20.2696C137.569 20.227 137.867 20.1924 138.097 20.1657C138.326 20.1364 138.492 20.0898 138.596 20.0259C138.7 19.962 138.752 19.8581 138.752 19.7142V19.6862C138.752 19.3373 138.653 19.0669 138.456 18.8751C138.262 18.6833 137.971 18.5874 137.585 18.5874C137.183 18.5874 136.866 18.6766 136.634 18.8551C136.405 19.0309 136.246 19.2267 136.159 19.4425L135.036 19.1868C135.169 18.8138 135.363 18.5128 135.619 18.2837C135.878 18.0519 136.175 17.8841 136.51 17.7802C136.846 17.6737 137.199 17.6204 137.569 17.6204C137.814 17.6204 138.074 17.6497 138.348 17.7083C138.625 17.7642 138.884 17.8681 139.123 18.02C139.366 18.1718 139.564 18.3889 139.719 18.6713C139.873 18.951 139.951 19.3146 139.951 19.7622V23.8379H138.784V22.9988H138.736C138.659 23.1533 138.543 23.3051 138.388 23.4543C138.234 23.6035 138.035 23.7274 137.793 23.8259C137.55 23.9245 137.26 23.9738 136.922 23.9738ZM137.182 23.0148C137.512 23.0148 137.794 22.9495 138.029 22.819C138.266 22.6885 138.446 22.518 138.568 22.3075C138.693 22.0944 138.756 21.8666 138.756 21.6242V20.833C138.713 20.8757 138.631 20.9156 138.508 20.9529C138.388 20.9876 138.251 21.0182 138.097 21.0448C137.942 21.0688 137.792 21.0914 137.645 21.1128C137.499 21.1314 137.376 21.1474 137.277 21.1607C137.046 21.19 136.834 21.2393 136.642 21.3086C136.453 21.3778 136.301 21.4777 136.187 21.6082C136.075 21.7361 136.019 21.9066 136.019 22.1197C136.019 22.4154 136.128 22.6392 136.346 22.791C136.565 22.9402 136.843 23.0148 137.182 23.0148Z" fill="white"/>
<path d="M146.378 23.9618C145.784 23.9618 145.272 23.8273 144.843 23.5582C144.417 23.2865 144.089 22.9122 143.86 22.4354C143.631 21.9585 143.517 21.4124 143.517 20.7971C143.517 20.1737 143.634 19.6236 143.868 19.1468C144.103 18.6673 144.433 18.293 144.859 18.024C145.286 17.7549 145.788 17.6204 146.366 17.6204C146.832 17.6204 147.248 17.707 147.612 17.8801C147.977 18.0506 148.272 18.2904 148.496 18.5994C148.722 18.9084 148.857 19.2693 148.899 19.6822H147.736C147.672 19.3945 147.526 19.1468 147.297 18.939C147.07 18.7312 146.767 18.6273 146.386 18.6273C146.053 18.6273 145.761 18.7152 145.511 18.8911C145.263 19.0642 145.07 19.312 144.931 19.6343C144.793 19.954 144.723 20.3322 144.723 20.7691C144.723 21.2167 144.791 21.6029 144.927 21.9279C145.063 22.2529 145.255 22.5046 145.503 22.6831C145.753 22.8616 146.047 22.9509 146.386 22.9509C146.612 22.9509 146.817 22.9096 147.001 22.827C147.188 22.7417 147.343 22.6205 147.469 22.4634C147.596 22.3062 147.686 22.1171 147.736 21.8959H148.899C148.857 22.2929 148.727 22.6472 148.512 22.9588C148.296 23.2705 148.007 23.5156 147.644 23.6941C147.285 23.8726 146.863 23.9618 146.378 23.9618Z" fill="white"/>
<path d="M153.526 21.7561L153.518 20.2976H153.726L156.171 17.7003H157.602L154.813 20.6572H154.625L153.526 21.7561ZM152.427 23.8379V15.6544H153.622V23.8379H152.427ZM156.303 23.8379L154.106 20.921L154.929 20.0858L157.77 23.8379H156.303Z" fill="white"/>
<path d="M160.941 23.8379V17.7003H162.136V23.8379H160.941ZM161.545 16.7533C161.337 16.7533 161.158 16.684 161.009 16.5455C160.863 16.4043 160.789 16.2365 160.789 16.042C160.789 15.8449 160.863 15.6771 161.009 15.5385C161.158 15.3974 161.337 15.3268 161.545 15.3268C161.752 15.3268 161.93 15.3974 162.076 15.5385C162.225 15.6771 162.3 15.8449 162.3 16.042C162.3 16.2365 162.225 16.4043 162.076 16.5455C161.93 16.684 161.752 16.7533 161.545 16.7533Z" fill="white"/>
<path d="M167.189 20.1937V23.8379H165.994V17.7003H167.141V18.6993H167.217C167.358 18.3743 167.579 18.1132 167.88 17.9161C168.184 17.7189 168.566 17.6204 169.027 17.6204C169.445 17.6204 169.811 17.7083 170.126 17.8841C170.44 18.0573 170.684 18.3157 170.857 18.6593C171.03 19.0029 171.116 19.4278 171.116 19.934V23.8379H169.922V20.0778C169.922 19.633 169.806 19.2853 169.574 19.0349C169.342 18.7818 169.024 18.6553 168.619 18.6553C168.342 18.6553 168.096 18.7152 167.88 18.8351C167.667 18.955 167.498 19.1308 167.372 19.3626C167.25 19.5917 167.189 19.8687 167.189 20.1937Z" fill="white"/>
<path d="M177.543 26.2674C177.055 26.2674 176.636 26.2035 176.284 26.0756C175.935 25.9477 175.65 25.7786 175.429 25.5681C175.208 25.3577 175.043 25.1273 174.933 24.8769L175.96 24.4533C176.032 24.5705 176.128 24.6944 176.248 24.8249C176.37 24.9581 176.536 25.0713 176.743 25.1646C176.954 25.2578 177.224 25.3044 177.555 25.3044C178.007 25.3044 178.382 25.1939 178.677 24.9728C178.973 24.7543 179.121 24.4053 179.121 23.9258V22.7191H179.045C178.973 22.8496 178.869 22.9948 178.733 23.1546C178.6 23.3145 178.416 23.453 178.182 23.5702C177.948 23.6874 177.643 23.746 177.267 23.746C176.782 23.746 176.345 23.6328 175.956 23.4064C175.57 23.1773 175.264 22.8403 175.037 22.3954C174.813 21.9479 174.702 21.3978 174.702 20.7451C174.702 20.0925 174.812 19.5331 175.033 19.0669C175.257 18.6007 175.563 18.2437 175.952 17.996C176.341 17.7456 176.782 17.6204 177.275 17.6204C177.656 17.6204 177.964 17.6843 178.198 17.8122C178.432 17.9374 178.615 18.0839 178.745 18.2517C178.879 18.4196 178.981 18.5674 179.053 18.6953H179.141V17.7003H180.312V23.9738C180.312 24.5012 180.189 24.9341 179.944 25.2724C179.699 25.6108 179.367 25.8612 178.949 26.0237C178.534 26.1862 178.065 26.2674 177.543 26.2674ZM177.531 22.7551C177.874 22.7551 178.165 22.6751 178.402 22.5153C178.641 22.3528 178.823 22.121 178.945 21.82C179.07 21.5163 179.133 21.1527 179.133 20.7292C179.133 20.3163 179.072 19.9526 178.949 19.6383C178.827 19.324 178.647 19.0789 178.41 18.9031C178.173 18.7246 177.88 18.6353 177.531 18.6353C177.171 18.6353 176.871 18.7286 176.632 18.915C176.392 19.0989 176.211 19.3493 176.088 19.6663C175.968 19.9833 175.908 20.3376 175.908 20.7292C175.908 21.1314 175.97 21.4844 176.092 21.7881C176.215 22.0917 176.396 22.3288 176.636 22.4993C176.878 22.6698 177.176 22.7551 177.531 22.7551Z" fill="white"/>
<mask id="mask0_3723_99" style="mask-type:luminance" maskUnits="userSpaceOnUse" x="0" y="24" width="9" height="5">
<path d="M0.515686 24.9474L2.35345 28.1092H8.38652L6.54964 24.9474H0.515686Z" fill="white"/>
</mask>
<g mask="url(#mask0_3723_99)">
<path d="M8.38652 24.9474H0.515686V28.1101H8.38652V24.9474Z" fill="url(#paint0_linear_3723_99)"/>
</g>
<mask id="mask1_3723_99" style="mask-type:luminance" maskUnits="userSpaceOnUse" x="0" y="8" width="13" height="21">
<path d="M0.515686 24.9474L2.35345 28.1092L12.9739 9.80187L10.2208 8.22011L0.515686 24.9474Z" fill="white"/>
</mask>
<g mask="url(#mask1_3723_99)">
<path d="M3.1904 3.13124L-7.69327 23.8393L10.3013 33.1968L21.185 12.4887L3.1904 3.13124Z" fill="url(#paint1_linear_3723_99)"/>
</g>
<mask id="mask2_3723_99" style="mask-type:luminance" maskUnits="userSpaceOnUse" x="10" y="8" width="14" height="21">
<path d="M10.2208 8.22011L21.2711 28.1092L23.1054 24.9474L13.4012 8.22011H10.2208Z" fill="white"/>
</mask>
<g mask="url(#mask2_3723_99)">
<path d="M19.9092 2.68691L1.58481 13.1553L13.4157 33.6456L31.7402 23.1772L19.9092 2.68691Z" fill="url(#paint2_linear_3723_99)"/>
</g>
<mask id="mask3_3723_99" style="mask-type:luminance" maskUnits="userSpaceOnUse" x="7" y="24" width="17" height="5">
<path d="M7.80951 24.9474L9.64727 28.1092H21.2712L23.1054 24.9474H7.80951Z" fill="white"/>
</mask>
<g mask="url(#mask3_3723_99)">
<path d="M23.1054 24.9474H7.80951V28.1101H23.1054V24.9474Z" fill="url(#paint3_linear_3723_99)"/>
</g>
<mask id="mask4_3723_99" style="mask-type:luminance" maskUnits="userSpaceOnUse" x="7" y="15" width="9" height="14">
<path d="M7.80951 24.9474L9.64727 28.1091C12.9378 24.7046 14.7879 21.3106 15.7887 18.2426L14.5306 15.9764C12.1008 21.4096 7.80951 24.9474 7.80951 24.9474Z" fill="white"/>
</mask>
<g mask="url(#mask4_3723_99)">
<path d="M9.9944 12.4359L2.37079 24.7863L13.6046 31.6473L21.2282 19.2969L9.9944 12.4359Z" fill="url(#paint4_linear_3723_99)"/>
</g>
<mask id="mask5_3723_99" style="mask-type:luminance" maskUnits="userSpaceOnUse" x="15" y="6" width="2" height="8">
<path d="M15.7632 12.2915L16.712 13.9276C17.2018 9.26119 15.9191 6.07925 15.9191 6.07925C16.2774 8.14031 16.2229 10.2515 15.7588 12.2915" fill="white"/>
</mask>
<g mask="url(#mask5_3723_99)">
<path d="M15.8262 5.78326L14.1388 13.5792L17.1377 14.2214L18.8251 6.42549L15.8262 5.78326Z" fill="url(#paint5_linear_3723_99)"/>
</g>
<path fill-rule="evenodd" clip-rule="evenodd" d="M17.0591 5.50965C17.0106 5.29057 16.7402 5.3265 16.5181 5.34753C16.2715 5.37119 15.9605 5.43517 15.7913 5.31861C15.638 5.21346 15.6601 4.88045 15.5649 4.66225C15.4292 4.35291 15.2557 4.05934 15.0989 3.75963C15.0416 3.65097 14.9852 3.54143 14.9006 3.37843C15.2099 3.254 15.4953 3.09713 15.801 3.02265C16.5419 2.84738 17.2925 2.70279 18.0414 2.5468C18.0106 2.37154 17.8899 2.31019 17.6819 2.2988C16.5877 2.2322 15.4944 2.14632 14.4002 2.07797C14.3277 2.07948 14.2563 2.05911 14.1956 2.01954C14.1349 1.97997 14.0877 1.92304 14.0602 1.85626C13.8593 1.46717 13.6646 1.07283 13.4311 0.703017C13.2707 0.474002 13.0874 0.261726 12.884 0.0694345C12.8382 0.0194841 12.7369 0.0212367 12.662 -0.000671387C12.6391 0.0729398 12.5818 0.156191 12.5968 0.221915C12.6463 0.496653 12.723 0.765834 12.8259 1.0255C13.0021 1.42335 13.2294 1.8028 13.4426 2.18488C13.4837 2.24446 13.5057 2.31504 13.5057 2.38731C13.5057 2.45959 13.4837 2.53017 13.4426 2.58974C12.8928 3.53442 12.3598 4.48786 11.8101 5.43254C11.7053 5.6078 11.692 5.74626 11.8189 5.86632C12.3642 5.33264 12.8972 4.78844 13.4576 4.27316C13.6884 4.06197 13.9782 3.91211 14.2505 3.72546C14.3386 3.88495 14.4002 3.99274 14.4593 4.10052C14.6231 4.39585 14.7738 4.70168 14.9579 4.98561C15.0856 5.18454 15.379 5.35191 15.3825 5.53594C15.3825 5.741 15.1596 5.96359 15.0037 6.14937C14.8645 6.32463 14.6839 6.52619 14.8398 6.68831L17.0591 5.50965Z" fill="white"/>
<defs>
<linearGradient id="paint0_linear_3723_99" x1="13.5049" y1="26.3946" x2="3.19602" y2="26.3946" gradientUnits="userSpaceOnUse">
<stop stop-color="white"/>
<stop offset="0.51" stop-color="#D5DDE7"/>
<stop offset="1" stop-color="white"/>
</linearGradient>
<linearGradient id="paint1_linear_3723_99" x1="11.8649" y1="10.1039" x2="-2.21623" y2="37.1824" gradientUnits="userSpaceOnUse">
<stop stop-color="white"/>
<stop offset="0.51" stop-color="#D5DDE7"/>
<stop offset="1" stop-color="white"/>
</linearGradient>
<linearGradient id="paint2_linear_3723_99" x1="7.21318" y1="0.277719" x2="22.5987" y2="27.2093" gradientUnits="userSpaceOnUse">
<stop stop-color="white"/>
<stop offset="0.51" stop-color="#D5DDE7"/>
<stop offset="1" stop-color="white"/>
</linearGradient>
<linearGradient id="paint3_linear_3723_99" x1="30.4828" y1="26.7257" x2="9.32905" y2="26.7257" gradientUnits="userSpaceOnUse">
<stop stop-color="white"/>
<stop offset="0.51" stop-color="#D5DDE7"/>
<stop offset="1" stop-color="white"/>
</linearGradient>
<linearGradient id="paint4_linear_3723_99" x1="16.6034" y1="13.8745" x2="0.620158" y2="40.0446" gradientUnits="userSpaceOnUse">
<stop stop-color="white"/>
<stop offset="0.51" stop-color="#D5DDE7"/>
<stop offset="1" stop-color="white"/>
</linearGradient>
<linearGradient id="paint5_linear_3723_99" x1="18.0345" y1="2.25409" x2="15.5997" y2="13.6239" gradientUnits="userSpaceOnUse">
<stop stop-color="white"/>
<stop offset="0.51" stop-color="#D5DDE7"/>
<stop offset="1" stop-color="white"/>
</linearGradient>
</defs>
</svg>
