<svg width="23" height="23" viewBox="0 0 23 23" fill="none" xmlns="http://www.w3.org/2000/svg">
<g id="mage--location 1">
<g id="Group">
<path id="Vector" d="M20.6109 11.9259H18.611M18.611 11.9259C18.611 13.7826 17.8739 15.5628 16.561 16.8756C15.2482 18.1885 13.4675 18.926 11.6109 18.926M18.611 11.9259C18.611 10.0693 17.8739 8.28818 16.561 6.97531C15.2482 5.66245 13.4675 4.92584 11.6109 4.92584M11.6109 2.92594V4.92584M11.6109 4.92584C9.75433 4.92584 7.97382 5.6624 6.66105 6.97517C5.34827 8.28795 4.61077 10.0685 4.61077 11.925C4.61077 13.7815 5.34827 15.562 6.66105 16.8748C7.97382 18.1876 9.75433 18.926 11.6109 18.926M2.61087 11.9259H4.61077M11.6109 20.9259V18.926" stroke="white" stroke-width="0.75" stroke-miterlimit="10" stroke-linecap="round"/>
<path id="Vector_2" d="M11.6109 15.9257C12.6717 15.9257 13.689 15.5043 14.4392 14.7542C15.1893 14.0041 15.6107 12.9868 15.6107 11.9259C15.6107 10.8651 15.1893 9.84777 14.4392 9.09767C13.689 8.34756 12.6717 7.92616 11.6109 7.92616C10.5501 7.92616 9.5327 8.34756 8.7826 9.09767C8.03249 9.84777 7.61108 10.8651 7.61108 11.9259C7.61108 12.9868 8.03249 14.0041 8.7826 14.7542C9.5327 15.5043 10.5501 15.9257 11.6109 15.9257Z" stroke="white" stroke-width="0.75" stroke-miterlimit="10" stroke-linecap="round"/>
</g>
</g>
</svg>
