<svg width="19" height="19" viewBox="0 0 19 19" fill="none" xmlns="http://www.w3.org/2000/svg">
<g id="lsicon--oclock-outline 1">
<path id="Vector" d="M6.86829 7.3843L9.68079 9.6343L14.1808 5.6968M9.68079 4.0093V5.1343M9.68079 14.1343V15.2593M4.05579 9.6343H5.18079M14.1808 9.6343H15.3058M16.9933 9.6343C16.9933 11.5737 16.2229 13.4337 14.8515 14.805C13.4801 16.1764 11.6202 16.9468 9.68079 16.9468C7.74139 16.9468 5.88143 16.1764 4.51007 14.805C3.13871 13.4337 2.36829 11.5737 2.36829 9.6343C2.36829 7.6949 3.13871 5.83494 4.51007 4.46358C5.88143 3.09222 7.74139 2.3218 9.68079 2.3218C11.6202 2.3218 13.4801 3.09222 14.8515 4.46358C16.2229 5.83494 16.9933 7.6949 16.9933 9.6343ZM10.8058 9.6343C10.8058 9.93267 10.6873 10.2188 10.4763 10.4298C10.2653 10.6408 9.97915 10.7593 9.68079 10.7593C9.38242 10.7593 9.09627 10.6408 8.88529 10.4298C8.67431 10.2188 8.55579 9.93267 8.55579 9.6343C8.55579 9.33593 8.67431 9.04978 8.88529 8.83881C9.09627 8.62783 9.38242 8.5093 9.68079 8.5093C9.97915 8.5093 10.2653 8.62783 10.4763 8.83881C10.6873 9.04978 10.8058 9.33593 10.8058 9.6343Z" stroke="white" stroke-width="0.75"/>
</g>
</svg>
