<svg width="27" height="27" viewBox="0 0 27 27" fill="none" xmlns="http://www.w3.org/2000/svg">
<g id="mynaui--redo 1">
<g id="Group">
<path id="Vector" d="M20.1562 20.7961C19.0224 21.9299 17.6266 22.7665 16.0922 23.232C14.5579 23.6974 12.9324 23.7773 11.3598 23.4644C9.78723 23.1516 8.31606 22.4558 7.07663 21.4386C5.83719 20.4215 4.86774 19.1143 4.25414 17.633C3.64055 16.1516 3.40176 14.5418 3.55891 12.9462C3.71607 11.3505 4.26432 9.8182 5.15511 8.48503C6.0459 7.15185 7.25173 6.05894 8.66579 5.30309C10.0798 4.54725 11.6585 4.15181 13.2619 4.15179C17.658 4.15179 20.323 7.08221 23.0119 10.1101" stroke="#43566D" stroke-width="0.75" stroke-linecap="round" stroke-linejoin="round"/>
<path id="Vector_2" d="M23.0119 5.77679V10.1101H18.6786" stroke="#43566D" stroke-width="0.75" stroke-linecap="round" stroke-linejoin="round"/>
</g>
</g>
</svg>
