<svg width="191" height="327" viewBox="0 0 191 327" fill="none" xmlns="http://www.w3.org/2000/svg">
<g clip-path="url(#clip0_9079_77)">
<path d="M32.5897 259.311V266.565H20.2793V304.405H12.3178V266.565H0V259.311H32.5897Z" fill="#00548F"/>
<path d="M36.7598 281.921C36.7598 266.64 43.9457 258.999 58.3177 258.999C72.4815 258.999 79.5609 266.64 79.556 281.921C79.556 297.119 72.4766 304.72 58.3177 304.725C44.5801 304.725 37.3941 297.124 36.7598 281.921ZM58.3177 297.47C66.9805 297.47 71.307 292.225 71.2971 281.736C71.2971 271.414 66.9706 266.254 58.3177 266.254C49.4517 266.254 45.0187 271.414 45.0187 281.736C45.0187 292.225 49.4517 297.47 58.3177 297.47Z" fill="#00548F"/>
<path d="M116.331 259.311V266.565H104.013V304.405H96.059V266.565H83.7412V259.311H116.331Z" fill="#00548F"/>
<path d="M121.914 304.405H113.744L131.979 259.311H140.535L159.157 304.405H150.601L145.702 292.109H131.437L134.172 284.854H142.818L136.06 267.917L121.914 304.405Z" fill="#00548F"/>
<path d="M173.549 259.311V297.158H190.609V304.405H165.587V259.311H173.549Z" fill="#00548F"/>
<path d="M2.7505 326.89H0L6.13286 311.719H9.01717L15.2764 326.89H12.3995L10.7492 322.746H5.95445L6.86881 320.311H9.78285L7.50811 314.615L2.7505 326.89Z" fill="#00548F"/>
<path d="M28.7539 311.719L22.4204 326.89H19.5361L13.4775 311.719H16.6592L21.1343 323.333L25.602 311.719H28.7539Z" fill="#00548F"/>
<path d="M32.4037 311.719H29.7275V326.89H32.4037V311.719Z" fill="#00548F"/>
<path d="M36.3882 326.89H33.6377L39.7706 311.719H42.6549L48.9141 326.89H46.0372L44.3944 322.746H39.5921L40.5065 320.311H43.4205L41.1458 314.615L36.3882 326.89Z" fill="#00548F"/>
<path d="M58.0726 311.719V314.155H53.932V326.89H51.2558V314.155H47.1152V311.719H58.0726Z" fill="#00548F"/>
<path d="M61.7299 311.719H59.0537V326.89H61.7299V311.719Z" fill="#00548F"/>
<path d="M63.7148 319.294C63.7148 314.155 66.1333 311.583 70.9702 311.578C75.8071 311.574 78.1884 314.145 78.1141 319.294C78.1141 324.407 75.7328 326.964 70.9702 326.964C66.3563 326.964 63.9379 324.407 63.7148 319.294ZM70.9702 324.491C73.8842 324.491 75.3388 322.727 75.3338 319.197C75.3289 315.667 73.8743 313.935 70.9702 313.999C67.9967 313.999 66.5099 315.732 66.5099 319.197C66.5099 322.662 67.9967 324.427 70.9702 324.491Z" fill="#00548F"/>
<path d="M80.0991 326.89V311.719H82.7827L90.4098 322.769V311.719H92.9819V326.89H90.3057L82.6786 315.603V326.89H80.0991Z" fill="#00548F"/>
<path d="M108.927 311.719V314.155H104.794V326.89H102.11V314.155H97.9697V311.719H108.927Z" fill="#00548F"/>
<path d="M109.908 326.867V311.719H116.472C119.446 311.719 120.932 313.071 120.932 315.781C120.932 317.608 119.78 319.13 117.483 320.333L122.062 326.89H118.687L114.294 320.281V318.996C116.851 318.536 118.13 317.492 118.13 315.863C118.13 314.749 117.535 314.185 116.338 314.185H112.666V326.867H109.908Z" fill="#00548F"/>
<path d="M124.241 326.89H121.498L127.63 311.719H130.507L136.774 326.89H133.89L132.247 322.746H127.445L128.366 320.311H131.273L129.006 314.615L124.241 326.89Z" fill="#00548F"/>
<path d="M140.677 311.719H138V326.89H140.677V311.719Z" fill="#00548F"/>
<path d="M143.167 326.89V311.719H145.851L153.478 322.769V311.719H156.05V326.89H153.374L145.747 315.603V326.89H143.167Z" fill="#00548F"/>
<path d="M161.224 311.719H158.547V326.89H161.224V311.719Z" fill="#00548F"/>
<path d="M163.721 326.89V311.719H166.397L174.024 322.769V311.719H176.604V326.89H173.92L166.293 315.603V326.89H163.721Z" fill="#00548F"/>
<path d="M190.609 326.184C189.225 326.766 187.732 327.043 186.231 326.994C181.131 326.994 178.584 324.36 178.589 319.093C178.589 314.103 181.181 311.608 186.365 311.608C187.814 311.587 189.254 311.839 190.609 312.351V314.898C189.338 314.328 187.959 314.039 186.565 314.051C183.096 314.051 181.362 315.732 181.362 319.093C181.362 322.731 183 324.551 186.275 324.551C186.837 324.541 187.394 324.456 187.933 324.298V319.888H190.609V326.184Z" fill="#00548F"/>
<mask id="mask0_9079_77" style="mask-type:luminance" maskUnits="userSpaceOnUse" x="0" y="211" width="67" height="28">
<path d="M0 211.395L15.5069 238.185H66.4133L50.9139 211.395H0Z" fill="white"/>
</mask>
<g mask="url(#mask0_9079_77)">
<path d="M66.4133 211.395H0V238.193H66.4133V211.395Z" fill="url(#paint0_linear_9079_77)"/>
</g>
<mask id="mask1_9079_77" style="mask-type:luminance" maskUnits="userSpaceOnUse" x="0" y="69" width="106" height="170">
<path d="M0 211.395L15.5069 238.186L105.121 83.0609L81.8904 69.658L0 211.395Z" fill="white"/>
</mask>
<g mask="url(#mask1_9079_77)">
<path d="M22.5691 26.5377L-69.2661 202.005L82.5704 281.294L174.406 105.827L22.5691 26.5377Z" fill="url(#paint1_linear_9079_77)"/>
</g>
<mask id="mask2_9079_77" style="mask-type:luminance" maskUnits="userSpaceOnUse" x="81" y="69" width="110" height="170">
<path d="M81.8906 69.658L175.132 238.186L190.61 211.395L108.727 69.658H81.8906Z" fill="white"/>
</mask>
<g mask="url(#mask2_9079_77)">
<path d="M163.641 22.7732L9.02148 111.476L108.849 285.098L263.469 196.395L163.641 22.7732Z" fill="url(#paint2_linear_9079_77)"/>
</g>
<mask id="mask3_9079_77" style="mask-type:luminance" maskUnits="userSpaceOnUse" x="61" y="211" width="130" height="28">
<path d="M61.5444 211.395L77.0513 238.185H175.132L190.61 211.395H61.5444Z" fill="white"/>
</mask>
<g mask="url(#mask3_9079_77)">
<path d="M190.61 211.395H61.5444V238.193H190.61V211.395Z" fill="url(#paint3_linear_9079_77)"/>
</g>
<mask id="mask4_9079_77" style="mask-type:luminance" maskUnits="userSpaceOnUse" x="61" y="135" width="68" height="104">
<path d="M61.5444 211.394L77.0513 238.185C104.816 209.338 120.427 180.579 128.872 154.583L118.257 135.38C97.7543 181.418 61.5444 211.394 61.5444 211.394Z" fill="white"/>
</mask>
<g mask="url(#mask4_9079_77)">
<path d="M79.9806 105.38L15.6533 210.03L110.443 268.165L174.77 163.516L79.9806 105.38Z" fill="url(#paint4_linear_9079_77)"/>
</g>
<mask id="mask5_9079_77" style="mask-type:luminance" maskUnits="userSpaceOnUse" x="128" y="51" width="10" height="68">
<path d="M128.656 104.156L136.662 118.02C140.796 78.4793 129.972 51.5176 129.972 51.5176C132.995 68.9817 132.536 86.8703 128.619 104.156" fill="white"/>
</mask>
<g mask="url(#mask5_9079_77)">
<path d="M129.188 49.0095L114.95 115.067L140.255 120.509L154.493 54.4513L129.188 49.0095Z" fill="url(#paint5_linear_9079_77)"/>
</g>
<path fill-rule="evenodd" clip-rule="evenodd" d="M139.591 46.6911C139.183 44.8347 136.9 45.1392 135.027 45.3174C132.946 45.5179 130.322 46.0599 128.894 45.0724C127.601 44.1813 127.787 41.3596 126.984 39.5107C125.839 36.8895 124.375 34.402 123.051 31.8625C122.568 30.9418 122.092 30.0136 121.379 28.6325C123.988 27.578 126.397 26.2489 128.976 25.6177C135.228 24.1326 141.561 22.9075 147.88 21.5857C147.62 20.1006 146.602 19.5809 144.847 19.4843C135.614 18.92 126.389 18.1923 117.156 17.6131C116.544 17.6259 115.942 17.4533 115.43 17.118C114.918 16.7827 114.519 16.3004 114.287 15.7345C112.592 12.4376 110.949 9.09615 108.979 5.96262C107.626 4.02209 106.079 2.2234 104.363 0.594034C103.976 0.170785 103.121 0.185636 102.489 0C102.296 0.623736 101.813 1.32915 101.939 1.88606C102.357 4.21402 103.004 6.49489 103.872 8.69518C105.359 12.0663 107.277 15.2815 109.076 18.519C109.423 19.0238 109.609 19.6219 109.609 20.2343C109.609 20.8467 109.423 21.4448 109.076 21.9496C104.437 29.9542 99.9397 38.0331 95.301 46.0377C94.4164 47.5228 94.3049 48.696 95.3754 49.7132C99.9769 45.1912 104.474 40.58 109.202 36.2138C111.15 34.4243 113.596 33.1545 115.893 31.5729C116.636 32.9244 117.156 33.8377 117.654 34.751C119.037 37.2534 120.308 39.8449 121.862 42.2507C122.94 43.9363 125.415 45.3545 125.445 46.9139C125.445 48.6514 123.564 50.5375 122.248 52.1117C121.074 53.5968 119.55 55.3046 120.866 56.6783L139.591 46.6911Z" fill="#00548F"/>
</g>
<defs>
<linearGradient id="paint0_linear_9079_77" x1="109.601" y1="223.657" x2="22.6164" y2="223.657" gradientUnits="userSpaceOnUse">
<stop stop-color="#212970"/>
<stop offset="0.51" stop-color="#007FB4"/>
<stop offset="1" stop-color="#212970"/>
</linearGradient>
<linearGradient id="paint1_linear_9079_77" x1="95.764" y1="85.62" x2="-23.8383" y2="314.655" gradientUnits="userSpaceOnUse">
<stop stop-color="#212970"/>
<stop offset="0.51" stop-color="#007FB4"/>
<stop offset="1" stop-color="#212970"/>
</linearGradient>
<linearGradient id="paint2_linear_9079_77" x1="56.5131" y1="2.35922" x2="187.158" y2="230.089" gradientUnits="userSpaceOnUse">
<stop stop-color="#212970"/>
<stop offset="0.51" stop-color="#007FB4"/>
<stop offset="1" stop-color="#212970"/>
</linearGradient>
<linearGradient id="paint3_linear_9079_77" x1="252.859" y1="226.463" x2="74.3662" y2="226.463" gradientUnits="userSpaceOnUse">
<stop stop-color="#212970"/>
<stop offset="0.51" stop-color="#007FB4"/>
<stop offset="1" stop-color="#212970"/>
</linearGradient>
<linearGradient id="paint4_linear_9079_77" x1="135.747" y1="117.569" x2="0.0557111" y2="338.812" gradientUnits="userSpaceOnUse">
<stop stop-color="#212970"/>
<stop offset="0.51" stop-color="#007FB4"/>
<stop offset="1" stop-color="#212970"/>
</linearGradient>
<linearGradient id="paint5_linear_9079_77" x1="147.822" y1="19.1054" x2="127.111" y2="115.411" gradientUnits="userSpaceOnUse">
<stop stop-color="#212970"/>
<stop offset="0.51" stop-color="#007FB4"/>
<stop offset="1" stop-color="#212970"/>
</linearGradient>
<clipPath id="clip0_9079_77">
<rect width="190.609" height="326.994" fill="white"/>
</clipPath>
</defs>
</svg>
